<svg xmlns="http://www.w3.org/2000/svg" width="605.93" height="75.013" viewBox="0 0 605.93 75.013">
  <g id="Blue_Brain_Project_-_Logo" data-name="Blue Brain Project - Logo" transform="translate(-190.682 -1499.309)">
    <path id="Tracé_514" data-name="Tracé 514" d="M211.542,1500.271c10.912,0,16.769,4.093,16.769,14.282,0,6.658-2.086,9.948-6.5,12.356,4.733,1.844,7.862,5.214,7.862,12.754,0,11.234-6.819,15.567-17.489,15.567h-21.5v-54.959Zm-11.953,7.7V1523.7h11.792c5.456,0,7.864-2.726,7.864-8.1,0-5.295-2.728-7.622-8.184-7.622Zm0,23.268v16.286H211.7c5.535,0,8.824-1.766,8.824-8.345,0-6.257-4.653-7.94-8.985-7.94Z" transform="translate(0 0.882)" fill="#00d4fe"/>
    <path id="Tracé_515" data-name="Tracé 515" d="M216,1499.309h8.746v56.8H216Z" transform="translate(23.219 0)" fill="#00d4fe"/>
    <path id="Tracé_516" data-name="Tracé 516" d="M259.5,1508.014v40.115h-8.665v-2.488s-5.857,3.37-10.83,3.37c-11.474,0-13.88-5.937-13.88-20.058v-20.938h8.744v21.019c0,8.9.562,12.194,6.819,12.194a23.815,23.815,0,0,0,9.146-2.086v-31.127Z" transform="translate(32.506 7.983)" fill="#00d4fe"/>
    <path id="Tracé_517" data-name="Tracé 517" d="M280.787,1541.089l.161,6.5a99.586,99.586,0,0,1-16.205,1.846c-12.035,0-16.688-6.419-16.688-20.54,0-14.681,6.338-21.341,17.409-21.341,11.232,0,16.849,5.857,16.849,18.373l-.562,6.257H256.879c.08,6.418,2.488,9.628,9.146,9.628C272.365,1541.811,280.787,1541.089,280.787,1541.089Zm-7.059-15.644c0-8.023-2.408-10.67-8.265-10.67-5.937,0-8.585,2.968-8.665,10.67Z" transform="translate(52.615 7.56)" fill="#00d4fe"/>
    <path id="Tracé_518" data-name="Tracé 518" d="M300.926,1500.271c10.912,0,16.769,4.093,16.769,14.282,0,6.658-2.086,9.948-6.5,12.356,4.733,1.844,7.862,5.214,7.862,12.754,0,11.234-6.819,15.567-17.49,15.567h-21.5v-54.959Zm-11.953,7.7V1523.7h11.794c5.456,0,7.862-2.726,7.862-8.1,0-5.295-2.728-7.622-8.184-7.622Zm0,23.268v16.286h12.114c5.536,0,8.826-1.766,8.826-8.345,0-6.257-4.655-7.94-8.987-7.94Z" transform="translate(81.974 0.882)" fill="#00d4fe"/>
    <path id="Tracé_519" data-name="Tracé 519" d="M305.134,1508.437H313.8v4.812s6.819-4.411,13.64-5.7v8.746a70.837,70.837,0,0,0-13.559,4.252v28h-8.746Z" transform="translate(104.961 7.56)" fill="#00d4fe"/>
    <path id="Tracé_520" data-name="Tracé 520" d="M351.153,1539.083c.161,2.408,1.2,3.37,3.529,3.69l-.24,6.66c-4.894,0-7.7-.642-10.671-2.97a35.4,35.4,0,0,1-12.917,2.97c-7.942,0-11.953-4.413-11.953-12.757,0-8.5,4.653-11.393,13.237-12.114l10.348-.884v-2.889c0-4.411-1.925-5.777-5.857-5.777-5.375,0-15.082.8-15.082.8l-.322-6.179a82.713,82.713,0,0,1,16.127-2.086c9.787,0,13.8,4.093,13.8,13.238Zm-17.971-8.344c-3.69.32-5.537,2.086-5.537,5.7s1.524,5.857,4.894,5.857a37.993,37.993,0,0,0,9.948-1.766v-10.669Z" transform="translate(117.588 7.56)" fill="#00d4fe"/>
    <path id="Tracé_521" data-name="Tracé 521" d="M341.457,1499.644H350.2v9.225h-8.746Zm0,16.046H350.2V1555.8h-8.746Z" transform="translate(138.272 0.307)" fill="#00d4fe"/>
    <path id="Tracé_522" data-name="Tracé 522" d="M351.542,1548.552v-40.115h8.665v2.486s5.857-3.37,11.071-3.37c11.152,0,13.88,6.338,13.88,19.5v21.5h-8.665v-21.262c0-8.023-1.043-11.953-7.139-11.953a24.213,24.213,0,0,0-9.066,2.086v31.129Z" transform="translate(147.521 7.56)" fill="#00d4fe"/>
    <path id="Tracé_523" data-name="Tracé 523" d="M393.046,1538.139v17.09h-8.9v-54.959h20.137c12.515,0,18.693,6.1,18.693,18.454,0,12.436-6.179,19.414-18.693,19.414Zm11.152-7.7c6.66,0,9.628-4.091,9.628-11.713,0-7.542-2.968-10.751-9.628-10.751H393.046v22.464Z" transform="translate(177.417 0.882)" fill="#00d4fe"/>
    <path id="Tracé_524" data-name="Tracé 524" d="M408.328,1508.437h8.665v4.812s6.819-4.411,13.638-5.7v8.746a70.847,70.847,0,0,0-13.558,4.252v28h-8.746Z" transform="translate(199.598 7.56)" fill="#00d4fe"/>
    <path id="Tracé_525" data-name="Tracé 525" d="M458.045,1528.253c0,13.318-4.093,21.18-17.892,21.18-13.719,0-17.89-7.862-17.89-21.18,0-13,4.494-20.7,17.89-20.7S458.045,1515.256,458.045,1528.253Zm-8.826,0c0-9.307-2.005-13.32-9.066-13.32s-9.066,4.012-9.066,13.32,1.6,13.8,9.066,13.8S449.219,1537.559,449.219,1528.253Z" transform="translate(212.378 7.56)" fill="#00d4fe"/>
    <path id="Tracé_526" data-name="Tracé 526" d="M449.634,1515.69H458.3v38.669c0,10.59-2.887,14.121-13.88,19.656l-3.449-6.5c7.3-4.572,8.665-6.016,8.665-13.237Zm0-16.046H458.3v9.225h-8.663Z" transform="translate(229.532 0.307)" fill="#00d4fe"/>
    <path id="Tracé_527" data-name="Tracé 527" d="M487.3,1541.089l.161,6.5a99.619,99.619,0,0,1-16.205,1.846c-12.035,0-16.688-6.419-16.688-20.54,0-14.681,6.338-21.341,17.409-21.341,11.232,0,16.849,5.857,16.849,18.373l-.562,6.257H463.393c.081,6.418,2.488,9.628,9.146,9.628C478.878,1541.811,487.3,1541.089,487.3,1541.089Zm-7.059-15.644c0-8.023-2.408-10.67-8.264-10.67-5.937,0-8.585,2.968-8.665,10.67Z" transform="translate(242.005 7.56)" fill="#00d4fe"/>
    <path id="Tracé_528" data-name="Tracé 528" d="M504.713,1509.077l-.32,6.9s-6.338-.64-9.388-.64c-8.343,0-10.27,3.368-10.27,12.6,0,10.27,1.685,13.718,10.35,13.718,3.05,0,9.386-.64,9.386-.64l.242,6.98a98.178,98.178,0,0,1-12.195,1.444c-12.356,0-16.608-6.1-16.608-21.5,0-14.361,4.814-20.379,16.769-20.379A85.672,85.672,0,0,1,504.713,1509.077Z" transform="translate(261.577 7.56)" fill="#00d4fe"/>
    <path id="Tracé_529" data-name="Tracé 529" d="M507.411,1521.041v17.649c0,6.017.242,8.1,4.413,8.1,2.247,0,6.578-.24,6.578-.24l.4,6.98a59.843,59.843,0,0,1-8.182,1.043c-9.066,0-11.874-3.37-11.874-14.922v-18.613h-5.134v-7.461h5.134v-11.635h8.665v11.635h11.071v7.461Z" transform="translate(277.81 2.417)" fill="#00d4fe"/>
  </g>
</svg>
